<svg width="20" height="20" viewBox="0 0 20 20" fill="none" xmlns="http://www.w3.org/2000/svg">
<path d="M12.4993 18.9577H7.49935C2.97435 18.9577 1.04102 17.0243 1.04102 12.4993V7.49935C1.04102 2.97435 2.97435 1.04102 7.49935 1.04102H12.4993C17.0243 1.04102 18.9577 2.97435 18.9577 7.49935V12.4993C18.9577 17.0243 17.0243 18.9577 12.4993 18.9577ZM7.49935 2.29102C3.65768 2.29102 2.29102 3.65768 2.29102 7.49935V12.4993C2.29102 16.341 3.65768 17.7077 7.49935 17.7077H12.4993C16.341 17.7077 17.7077 16.341 17.7077 12.4993V7.49935C17.7077 3.65768 16.341 2.29102 12.4993 2.29102H7.49935Z" fill="white"/>
<path d="M7.35052 8.12487C6.64219 8.12487 5.93385 7.8582 5.39219 7.31654C5.15052 7.07487 5.15052 6.67487 5.39219 6.4332C5.63385 6.19154 6.03385 6.19154 6.27552 6.4332C6.86719 7.02487 7.83385 7.02487 8.42552 6.4332C8.66719 6.19154 9.06719 6.19154 9.30885 6.4332C9.55052 6.67487 9.55052 7.07487 9.30885 7.31654C8.76719 7.84987 8.05885 8.12487 7.35052 8.12487Z" fill="white"/>
<path d="M12.6493 8.12487C11.941 8.12487 11.2327 7.8582 10.691 7.31654C10.4493 7.07487 10.4493 6.67487 10.691 6.4332C10.9327 6.19154 11.3327 6.19154 11.5743 6.4332C12.166 7.02487 13.1327 7.02487 13.7243 6.4332C13.966 6.19154 14.366 6.19154 14.6077 6.4332C14.8493 6.67487 14.8493 7.07487 14.6077 7.31654C14.066 7.84987 13.3577 8.12487 12.6493 8.12487Z" fill="white"/>
<path d="M10 15.959C7.58333 15.959 5.625 13.9923 5.625 11.584C5.625 10.8257 6.24167 10.209 7 10.209H13C13.7583 10.209 14.375 10.8257 14.375 11.584C14.375 13.9923 12.4167 15.959 10 15.959ZM7 11.459C6.93333 11.459 6.875 11.5173 6.875 11.584C6.875 13.309 8.275 14.709 10 14.709C11.725 14.709 13.125 13.309 13.125 11.584C13.125 11.5173 13.0667 11.459 13 11.459H7Z" fill="white"/>
</svg>
