<svg width="20" height="20" viewBox="0 0 20 20" fill="none" xmlns="http://www.w3.org/2000/svg">
<path d="M16.6756 16.0507C16.5173 16.0507 16.359 15.9923 16.234 15.8673L12.109 11.7423C11.8673 11.5006 11.8673 11.1007 12.109 10.859C12.3507 10.6173 12.7506 10.6173 12.9923 10.859L17.1173 14.984C17.359 15.2257 17.359 15.6257 17.1173 15.8673C16.9923 15.9923 16.834 16.0507 16.6756 16.0507Z" fill="white"/>
<path d="M8.42423 15.3581C7.81589 15.3581 7.23256 15.1164 6.80756 14.6831L3.27422 11.1497C2.38255 10.2581 2.38255 8.79972 3.27422 7.90805L9.16589 2.01641C10.0576 1.12474 11.5159 1.12474 12.4076 2.01641L15.9409 5.54973C16.3742 5.98306 16.6159 6.55807 16.6159 7.1664C16.6159 7.77473 16.3742 8.35807 15.9409 8.78307L10.0492 14.6747C9.61589 15.1247 9.04089 15.3581 8.42423 15.3581ZM10.7826 2.59972C10.5159 2.59972 10.2492 2.69972 10.0492 2.90805L4.15756 8.79973C3.74923 9.20806 3.74923 9.86638 4.15756 10.2747L7.69089 13.8081C8.08256 14.1997 8.76589 14.1997 9.16589 13.8081L15.0576 7.9164C15.2576 7.7164 15.3659 7.45806 15.3659 7.18306C15.3659 6.90806 15.2576 6.64139 15.0576 6.44972L11.5242 2.9164C11.3159 2.69973 11.0492 2.59972 10.7826 2.59972Z" fill="white"/>
<path d="M6.66602 18.125H1.66602C1.32435 18.125 1.04102 17.8417 1.04102 17.5C1.04102 17.1583 1.32435 16.875 1.66602 16.875H6.66602C7.00768 16.875 7.29102 17.1583 7.29102 17.5C7.29102 17.8417 7.00768 18.125 6.66602 18.125Z" fill="white"/>
<path d="M11.3583 13.1161C11.2 13.1161 11.0417 13.0578 10.9167 12.9328L5.025 7.04114C4.78333 6.79948 4.78333 6.39948 5.025 6.15781C5.26667 5.91615 5.66666 5.91615 5.90833 6.15781L11.8 12.0495C12.0417 12.2911 12.0417 12.6911 11.8 12.9328C11.6833 13.0578 11.5167 13.1161 11.3583 13.1161Z" fill="white"/>
</svg>
