<svg width="185" height="183" viewBox="0 0 185 183" fill="none" xmlns="http://www.w3.org/2000/svg">
<path d="M118.778 15.3905C120.781 9.61191 117.693 3.24047 111.707 1.98756C91.994 -2.13838 71.3383 0.178929 52.9392 8.76168C31.1734 18.9149 14.2813 37.0358 5.85241 59.2737C-2.57649 81.5116 -1.87773 106.114 7.8002 127.852C17.4781 149.59 35.3723 166.75 57.6803 175.687C79.9882 184.623 104.951 184.631 127.265 175.708C149.579 166.786 167.484 149.637 177.176 127.905C186.868 106.173 187.583 81.5713 179.168 59.3281C172.034 40.4695 158.814 24.5665 141.695 13.9673C136.562 10.7887 130.009 13.1667 127.393 18.6088V18.6088C124.736 24.1359 127.168 30.7023 132.246 34.1407C144.071 42.1475 153.204 53.5929 158.28 67.0092C164.666 83.8914 164.124 102.563 156.768 119.058C149.412 135.552 135.822 148.568 118.886 155.34C101.95 162.112 83.0038 162.106 66.0725 155.323C49.1411 148.541 35.5597 135.516 28.2144 119.017C20.869 102.518 20.3386 83.8461 26.736 66.9679C33.1334 50.0897 45.9542 36.3362 62.4741 28.6302C75.6812 22.4693 90.4202 20.562 104.637 23.0223C110.59 24.0524 116.799 21.0985 118.778 15.3905V15.3905Z" fill="white" fill-opacity="0.12"/>
<path d="M170.429 66.981C176.1 65.2188 179.304 59.1371 176.836 53.7361C169.885 38.5247 158.8 25.4167 144.718 15.9209C130.541 6.36202 114.006 0.922274 96.9884 0.107291C91.1585 -0.171901 86.7358 4.92398 87.1249 10.7476C87.513 16.556 92.5503 20.8726 98.3524 21.3451C110.581 22.341 122.405 26.4476 132.632 33.3434C142.804 40.2019 150.94 49.5123 156.317 60.3122C158.934 65.5671 164.823 68.723 170.429 66.981Z" fill="white"/>
<path d="M162.366 49.5159C167.468 46.4717 169.143 39.7971 165.459 35.136C155.054 21.974 141.137 11.8208 125.172 5.87825C109.132 -0.0923665 91.7935 -1.52641 75.0896 1.62985C69.3222 2.71963 66.2097 8.7561 67.993 14.3481C69.7559 19.8763 75.6466 22.8651 81.3796 21.97C93.5146 20.0752 106.005 21.3051 117.61 25.625C129.172 29.9286 139.336 37.1056 147.161 46.3831C150.925 50.8449 157.353 52.5064 162.366 49.5159Z" fill="#2F53FF"/>
<path d="M145.242 30.2665C149.26 25.6252 148.733 18.5325 143.594 15.1751C133.582 8.63439 122.342 4.05854 110.491 1.74175C98.5867 -0.585376 86.3709 -0.573538 74.5358 1.73651C68.5623 2.90247 65.3996 9.19763 67.3095 14.9765V14.9765C69.1969 20.6875 75.3359 23.7177 81.2756 22.7707C89.5068 21.4582 97.9386 21.5953 106.174 23.2053C114.399 24.8131 122.236 27.8525 129.329 32.1532C134.476 35.2733 141.304 34.8168 145.242 30.2665V30.2665Z" fill="#00FFA3"/>
</svg>
