<svg width="458" height="188" viewBox="0 0 458 188" fill="#171A1E" xmlns="http://www.w3.org/2000/svg">
<path d="M0 187H457.081" stroke="#464646" stroke-opacity="1"/>
<path d="M0 151H457.081" stroke="#464646" stroke-opacity="1"/>
<path d="M0 115H457.081" stroke="#464646" stroke-opacity="1"/>
<path d="M0 79.002H457.081" stroke="#464646" stroke-opacity="1"/>
<path d="M0 43H457.081" stroke="#464646" stroke-opacity="1"/>
<path d="M0 7.12891H457.081" stroke="#464646" stroke-opacity="1"/>
<path d="M392.047 188V-4.17233e-07" stroke="#464646" stroke-opacity="1"/>
<path d="M282.047 188V-4.17233e-07" stroke="#464646" stroke-opacity="1"/>
<path d="M117.047 188L117.047 -4.17233e-07" stroke="#464646" stroke-opacity="1"/>
<path d="M447.047 188V-4.17233e-07" stroke="#464646" stroke-opacity="1"/>
<path d="M337.047 188V-4.17233e-07" stroke="#464646" stroke-opacity="1"/>
<path d="M172.047 188L172.047 -4.17233e-07" stroke="#464646" stroke-opacity="1"/>
<path d="M62.0469 188L62.0469 -4.17233e-07" stroke="#464646" stroke-opacity="1"/>
<path d="M7.04688 188L7.04688 -4.17233e-07" stroke="#464646" stroke-opacity="1"/>
<path d="M227.047 188L227.047 -4.17233e-07" stroke="#464646" stroke-opacity="1"/>
</svg>
