<svg width="59" height="59" viewBox="0 0 59 59" fill="none" xmlns="http://www.w3.org/2000/svg">
<circle cx="29.5" cy="29.5" r="29.5" fill="#F2AE14"/>
<path d="M34.0703 22.9375H35.5117V34.4922C35.5117 35.7734 35.2422 36.8398 34.7031 37.6914C34.1641 38.543 33.4375 39.1797 32.5234 39.6016C31.6172 40.0234 30.6133 40.2344 29.5117 40.2344C28.3789 40.2344 27.3594 40.0234 26.4531 39.6016C25.5469 39.1797 24.8281 38.543 24.2969 37.6914C23.7734 36.8398 23.5117 35.7734 23.5117 34.4922V22.9375H24.9414V34.4922C24.9414 35.4844 25.1367 36.3164 25.5273 36.9883C25.918 37.6602 26.457 38.1641 27.1445 38.5C27.832 38.8359 28.6211 39.0039 29.5117 39.0039C30.3945 39.0039 31.1797 38.8359 31.8672 38.5C32.5547 38.1641 33.0938 37.6602 33.4844 36.9883C33.875 36.3164 34.0703 35.4844 34.0703 34.4922V22.9375Z" fill="white"/>
</svg>
