<svg width="62" height="62" viewBox="0 0 62 62" fill="none" xmlns="http://www.w3.org/2000/svg">
<g filter="url(#filter0_d_372_4238)">
<path d="M34 37.75H28C22.57 37.75 20.25 35.43 20.25 30V24C20.25 18.57 22.57 16.25 28 16.25H34C39.43 16.25 41.75 18.57 41.75 24V30C41.75 35.43 39.43 37.75 34 37.75ZM28 17.75C23.39 17.75 21.75 19.39 21.75 24V30C21.75 34.61 23.39 36.25 28 36.25H34C38.61 36.25 40.25 34.61 40.25 30V24C40.25 19.39 38.61 17.75 34 17.75H28Z" fill="#2F53FF"/>
<path d="M31 31.25C28.66 31.25 26.75 29.34 26.75 27C26.75 24.66 28.66 22.75 31 22.75C33.34 22.75 35.25 24.66 35.25 27C35.25 29.34 33.34 31.25 31 31.25ZM31 24.25C29.48 24.25 28.25 25.48 28.25 27C28.25 28.52 29.48 29.75 31 29.75C32.52 29.75 33.75 28.52 33.75 27C33.75 25.48 32.52 24.25 31 24.25Z" fill="#2F53FF"/>
<path d="M36 22.5009C35.87 22.5009 35.74 22.4709 35.62 22.4209C35.5 22.3709 35.39 22.3009 35.29 22.2109C35.2 22.1109 35.12 22.0009 35.07 21.8809C35.02 21.7609 35 21.6309 35 21.5009C35 21.3709 35.02 21.2409 35.07 21.1209C35.13 20.9909 35.2 20.8909 35.29 20.7909C35.34 20.7509 35.39 20.7009 35.44 20.6709C35.5 20.6309 35.56 20.6009 35.62 20.5809C35.68 20.5509 35.74 20.5309 35.81 20.5209C36.13 20.4509 36.47 20.5609 36.71 20.7909C36.8 20.8909 36.87 20.9909 36.92 21.1209C36.97 21.2409 37 21.3709 37 21.5009C37 21.6309 36.97 21.7609 36.92 21.8809C36.87 22.0009 36.8 22.1109 36.71 22.2109C36.61 22.3009 36.5 22.3709 36.38 22.4209C36.26 22.4709 36.13 22.5009 36 22.5009Z" fill="#2F53FF"/>
</g>
<defs>
<filter id="filter0_d_372_4238" x="-1" y="-1" width="64" height="64" filterUnits="userSpaceOnUse" color-interpolation-filters="sRGB">
<feFlood flood-opacity="0" result="BackgroundImageFix"/>
<feColorMatrix in="SourceAlpha" type="matrix" values="0 0 0 0 0 0 0 0 0 0 0 0 0 0 0 0 0 0 127 0" result="hardAlpha"/>
<feOffset dy="4"/>
<feGaussianBlur stdDeviation="10"/>
<feComposite in2="hardAlpha" operator="out"/>
<feColorMatrix type="matrix" values="0 0 0 0 0.184314 0 0 0 0 0.32549 0 0 0 0 1 0 0 0 0.4 0"/>
<feBlend mode="normal" in2="BackgroundImageFix" result="effect1_dropShadow_372_4238"/>
<feBlend mode="normal" in="SourceGraphic" in2="effect1_dropShadow_372_4238" result="shape"/>
</filter>
</defs>
</svg>
