<svg width="60" height="60" viewBox="0 0 56 52" fill="none" xmlns="http://www.w3.org/2000/svg">
<g filter="url(#filter0_d_372_4319)">
<path d="M31 37.81C30.31 37.81 29.66 37.46 29.2 36.85L27.7 34.85C27.67 34.81 27.55 34.75 27.49 34.75H27C22.83 34.75 20.25 33.62 20.25 28V23C20.25 18.58 22.58 16.25 27 16.25H31C31.41 16.25 31.75 16.59 31.75 17C31.75 17.41 31.41 17.75 31 17.75H27C23.42 17.75 21.75 19.42 21.75 23V28C21.75 32.52 23.3 33.25 27 33.25H27.5C28.01 33.25 28.59 33.54 28.9 33.95L30.4 35.95C30.75 36.41 31.25 36.41 31.6 35.95L33.1 33.95C33.43 33.51 33.95 33.25 34.5 33.25H35C38.58 33.25 40.25 31.58 40.25 28V23C40.25 22.59 40.59 22.25 41 22.25C41.41 22.25 41.75 22.59 41.75 23V28C41.75 32.42 39.42 34.75 35 34.75H34.5C34.42 34.75 34.35 34.79 34.3 34.85L32.8 36.85C32.34 37.46 31.69 37.81 31 37.81Z" fill="#2F53FF"/>
<path d="M31 27C30.44 27 30 26.55 30 26C30 25.45 30.45 25 31 25C31.55 25 32 25.45 32 26C32 26.55 31.56 27 31 27Z" fill="#2F53FF"/>
<path d="M35 27C34.44 27 34 26.55 34 26C34 25.45 34.45 25 35 25C35.55 25 36 25.45 36 26C36 26.55 35.56 27 35 27Z" fill="#2F53FF"/>
<path d="M27 27C26.44 27 26 26.55 26 26C26 25.45 26.45 25 27 25C27.55 25 28 25.45 28 26C28 26.55 27.56 27 27 27Z" fill="#2F53FF"/>
<path d="M37.0004 22.7495C36.1404 22.7495 34.1104 21.7295 33.4904 19.8595C33.2404 19.1195 33.3004 18.2695 33.6504 17.5995C33.9604 16.9995 34.4804 16.5595 35.1204 16.3595C35.7704 16.1595 36.4604 16.2495 37.0004 16.5795C37.5404 16.2495 38.2304 16.1595 38.8904 16.3595C39.5304 16.5595 40.0504 16.9995 40.3604 17.5995C40.7104 18.2695 40.7704 19.1195 40.5204 19.8595C39.8904 21.7595 37.7704 22.7495 37.0004 22.7495ZM34.9104 19.3795C35.3304 20.6395 36.7604 21.2195 37.0204 21.2495C37.3104 21.2195 38.7104 20.5695 39.1004 19.3895C39.2204 19.0295 39.1904 18.5995 39.0304 18.2895C38.9004 18.0395 38.7104 17.8795 38.4504 17.7995C38.1704 17.6995 37.7904 17.7495 37.6204 17.9995C37.4804 18.1995 37.2604 18.3195 37.0204 18.3295C36.7804 18.3295 36.5504 18.2195 36.4004 18.0295C36.1904 17.7595 35.8204 17.7195 35.5504 17.7995C35.2904 17.8795 35.1004 18.0395 34.9704 18.2895C34.8204 18.5995 34.7904 19.0195 34.9104 19.3795Z" fill="#2F53FF"/>
</g>
<defs>
<filter id="filter0_d_372_4319" x="-1" y="-1" width="64" height="64" filterUnits="userSpaceOnUse" color-interpolation-filters="sRGB">
<feFlood flood-opacity="0" result="BackgroundImageFix"/>
<feColorMatrix in="SourceAlpha" type="matrix" values="0 0 0 0 0 0 0 0 0 0 0 0 0 0 0 0 0 0 127 0" result="hardAlpha"/>
<feOffset dy="4"/>
<feGaussianBlur stdDeviation="10"/>
<feComposite in2="hardAlpha" operator="out"/>
<feColorMatrix type="matrix" values="0 0 0 0 0.184314 0 0 0 0 0.32549 0 0 0 0 1 0 0 0 0.4 0"/>
<feBlend mode="normal" in2="BackgroundImageFix" result="effect1_dropShadow_372_4319"/>
<feBlend mode="normal" in="SourceGraphic" in2="effect1_dropShadow_372_4319" result="shape"/>
</filter>
</defs>
</svg>
