<svg width="43" height="43" viewBox="0 0 43 43" fill="none" xmlns="http://www.w3.org/2000/svg">
<g filter="url(#filter0_d_372_4318)">
<path fill-rule="evenodd" clip-rule="evenodd" d="M33.1467 13.8574L28.9404 30.184C28.5595 31.6623 26.841 32.2566 25.6228 31.5029C24.6254 30.8858 22.5509 29.6671 18.4807 27.4792C17.6711 27.044 17.3811 25.9099 18.0758 25.1426L20.1028 22.9035L16.7787 24.725C15.706 25.3128 14.3795 25.6552 13.0102 25.3693C11.1517 24.9813 9.40669 24.2854 8.87997 24.0665C7.55398 23.5152 7.73461 21.7591 8.89025 21.2867L31.2067 12.1646C32.3032 11.7164 33.4424 12.7098 33.1467 13.8574ZM9.43258 22.6135C9.37396 22.6374 9.37175 22.7186 9.43022 22.743C9.93099 22.9511 11.5776 23.606 13.3032 23.9662C14.2573 24.1655 15.2351 23.9364 16.0899 23.468L25.7565 18.1711C25.969 18.0546 26.1819 18.3243 26.0192 18.504L19.1384 26.1045C19.1071 26.139 19.1184 26.1947 19.1594 26.2167C23.2433 28.4121 25.3454 29.6458 26.3769 30.284C26.8135 30.5541 27.4243 30.3236 27.5524 29.8264L31.7587 13.4998C31.7602 13.4941 31.7545 13.4892 31.7491 13.4914L9.43258 22.6135Z" fill="#2F53FF"/>
</g>
<defs>
<filter id="filter0_d_372_4318" x="-12.0469" y="-3.94531" width="65.2402" height="59.7754" filterUnits="userSpaceOnUse" color-interpolation-filters="sRGB">
<feFlood flood-opacity="0" result="BackgroundImageFix"/>
<feColorMatrix in="SourceAlpha" type="matrix" values="0 0 0 0 0 0 0 0 0 0 0 0 0 0 0 0 0 0 127 0" result="hardAlpha"/>
<feOffset dy="4"/>
<feGaussianBlur stdDeviation="10"/>
<feComposite in2="hardAlpha" operator="out"/>
<feColorMatrix type="matrix" values="0 0 0 0 0.184314 0 0 0 0 0.32549 0 0 0 0 1 0 0 0 0.4 0"/>
<feBlend mode="normal" in2="BackgroundImageFix" result="effect1_dropShadow_372_4318"/>
<feBlend mode="normal" in="SourceGraphic" in2="effect1_dropShadow_372_4318" result="shape"/>
</filter>
</defs>
</svg>
