<svg width="28" height="28" viewBox="0 0 28 28" fill="none" xmlns="http://www.w3.org/2000/svg">
<path fill-rule="evenodd" clip-rule="evenodd" d="M6.97052 10.1632C6.97052 7.12579 9.79674 3.83008 13.9999 3.83008C18.2031 3.83008 21.0293 7.12579 21.0293 10.1632C21.0293 10.9425 21.1285 11.4881 21.2639 11.9077C21.3997 12.3286 21.5807 12.6521 21.7892 13.0011C21.8105 13.0367 21.8324 13.0731 21.8547 13.1101C22.0449 13.4262 22.2657 13.7932 22.4343 14.2342C22.6287 14.7428 22.7499 15.3329 22.7499 16.0994C22.7499 16.1198 22.749 16.1403 22.7472 16.1607C22.6784 16.9532 22.443 17.6487 21.995 18.2282C21.5489 18.8051 20.9328 19.2146 20.1899 19.5055C18.7383 20.074 16.6646 20.2399 13.9999 20.2399C11.3365 20.2399 9.26283 20.0767 7.81124 19.5096C7.0681 19.2193 6.45163 18.8101 6.00528 18.2324C5.55706 17.6522 5.32162 16.9554 5.25266 16.1607C5.25089 16.1403 5.25 16.1198 5.25 16.0994C5.25 15.3329 5.3712 14.7428 5.56558 14.2342C5.73412 13.7932 5.95495 13.4262 6.14517 13.1102C6.16747 13.0731 6.18935 13.0367 6.21067 13.0011C6.41918 12.6521 6.60015 12.3286 6.73596 11.9077C6.87133 11.4881 6.97052 10.9425 6.97052 10.1632ZM13.9999 5.24899C10.55 5.24899 8.38942 7.93944 8.38942 10.1632C8.38942 11.0679 8.27354 11.7631 8.08632 12.3434C7.89953 12.9224 7.65038 13.3578 7.42875 13.7288C7.40683 13.7655 7.38537 13.8013 7.36438 13.8363C7.16813 14.1635 7.01231 14.4233 6.89099 14.7407C6.76498 15.0705 6.67214 15.4791 6.66899 16.0683C6.7226 16.6365 6.884 17.0489 7.12814 17.3649C7.37846 17.6889 7.75714 17.9652 8.32754 18.188C9.50301 18.6472 11.33 18.821 13.9999 18.821C16.6696 18.821 18.497 18.6447 19.6725 18.1843C20.2431 17.9609 20.622 17.6842 20.8724 17.3603C21.1165 17.0446 21.2775 16.6335 21.3309 16.0683C21.3277 15.4791 21.2349 15.0705 21.1089 14.7407C20.9875 14.4233 20.8317 14.1635 20.6355 13.8362C20.6145 13.8012 20.593 13.7655 20.5711 13.7288C20.3495 13.3578 20.1003 12.9224 19.9135 12.3434C19.7263 11.7631 19.6104 11.0679 19.6104 10.1632C19.6104 7.93944 17.4498 5.24899 13.9999 5.24899Z" fill="white"/>
<path fill-rule="evenodd" clip-rule="evenodd" d="M11.1786 21.8497C11.4701 21.5878 11.9187 21.6118 12.1805 21.9033C13.1986 23.0363 14.7204 23.0256 15.7317 21.9027C15.9939 21.6115 16.4425 21.588 16.7337 21.8503C17.0248 22.1125 17.0483 22.561 16.7861 22.8522C15.2166 24.5949 12.7125 24.6182 11.1251 22.8516C10.8632 22.5602 10.8872 22.1116 11.1786 21.8497Z" fill="white"/>
<path d="M24.5 7C24.5 8.933 22.933 10.5 21 10.5C19.067 10.5 17.5 8.933 17.5 7C17.5 5.067 19.067 3.5 21 3.5C22.933 3.5 24.5 5.067 24.5 7Z" fill="#EB001B"/>
</svg>
