<svg width="20" height="20" viewBox="0 0 20 20" fill="none" xmlns="http://www.w3.org/2000/svg">
<path d="M10.0167 16.9582C7.86672 16.9582 5.72505 16.6165 3.68339 15.9332C2.92505 15.6832 2.35005 15.1415 2.10005 14.4582C1.85005 13.7749 1.93339 12.9915 2.34172 12.3082L3.40005 10.5415C3.63339 10.1499 3.84172 9.41654 3.84172 8.9582V7.2082C3.84172 3.79987 6.60839 1.0332 10.0167 1.0332C13.4251 1.0332 16.1917 3.79987 16.1917 7.2082V8.9582C16.1917 9.4082 16.4001 10.1499 16.6334 10.5415L17.6917 12.3082C18.0834 12.9582 18.1501 13.7332 17.8917 14.4415C17.6334 15.1499 17.0667 15.6915 16.3501 15.9332C14.3084 16.6249 12.1667 16.9582 10.0167 16.9582ZM10.0167 2.29154C7.30005 2.29154 5.09172 4.49987 5.09172 7.21654V8.96654C5.09172 9.64154 4.82505 10.6165 4.47505 11.1915L3.41672 12.9665C3.20005 13.3249 3.15005 13.7082 3.27505 14.0415C3.40005 14.3749 3.68339 14.6249 4.08339 14.7582C7.91672 16.0332 12.1334 16.0332 15.9667 14.7582C16.3251 14.6415 16.6001 14.3749 16.7251 14.0249C16.8584 13.6749 16.8167 13.2915 16.6251 12.9665L15.5667 11.1999C15.2167 10.6249 14.9501 9.64987 14.9501 8.97487V7.22487C14.9417 4.49987 12.7334 2.29154 10.0167 2.29154Z" fill="white"/>
<path d="M9.99961 19.0836C9.10794 19.0836 8.23294 18.7169 7.59961 18.0836C6.96628 17.4503 6.59961 16.5753 6.59961 15.6836H7.84961C7.84961 16.2503 8.08294 16.8003 8.48294 17.2003C8.88294 17.6003 9.43294 17.8336 9.99961 17.8336C11.1829 17.8336 12.1496 16.8669 12.1496 15.6836H13.3996C13.3996 17.5586 11.8746 19.0836 9.99961 19.0836Z" fill="white"/>
</svg>
