<svg width="20" height="20" viewBox="0 0 20 20" fill="none" xmlns="http://www.w3.org/2000/svg">
<path d="M13.917 16.4421H6.08369C5.46702 16.4421 4.84202 16.0004 4.63369 15.4254L1.18369 5.76706C0.758686 4.55039 1.06702 3.99206 1.40035 3.74206C1.73369 3.49206 2.35869 3.34206 3.40869 4.09206L6.65869 6.41706C6.75869 6.47539 6.85035 6.50039 6.91702 6.48372C6.99202 6.45872 7.05035 6.39206 7.09202 6.27539L8.55869 2.36706C9.00035 1.20039 9.65035 1.02539 10.0004 1.02539C10.3504 1.02539 11.0004 1.20039 11.442 2.36706L12.9087 6.27539C12.9504 6.38372 13.0087 6.45872 13.0837 6.48372C13.1587 6.50872 13.2504 6.48372 13.342 6.40872L16.392 4.23372C17.5087 3.43372 18.1587 3.59206 18.517 3.85039C18.867 4.11706 19.192 4.70872 18.7337 6.00039L15.367 15.4254C15.1587 16.0004 14.5337 16.4421 13.917 16.4421ZM2.23369 4.84206C2.25035 4.95872 2.28369 5.12539 2.36702 5.34206L5.81702 15.0004C5.85035 15.0837 6.00035 15.1921 6.08369 15.1921H13.917C14.0087 15.1921 14.1587 15.0837 14.1837 15.0004L17.5504 5.58372C17.667 5.26706 17.7004 5.05039 17.7087 4.92539C17.5837 4.96706 17.392 5.05872 17.117 5.25872L14.067 7.43372C13.6504 7.72539 13.1587 7.81706 12.717 7.68372C12.2754 7.55039 11.917 7.20039 11.7337 6.72539L10.267 2.81706C10.1587 2.52539 10.0587 2.38372 10.0004 2.31706C9.94202 2.38372 9.84202 2.52539 9.73369 2.80872L8.26702 6.71706C8.09202 7.19206 7.73369 7.54206 7.28369 7.67539C6.84202 7.80872 6.34202 7.71706 5.93369 7.42539L2.68369 5.10039C2.49202 4.96706 2.34202 4.88372 2.23369 4.84206Z" fill="white"/>
<path d="M14.5827 18.959H5.41602C5.07435 18.959 4.79102 18.6757 4.79102 18.334C4.79102 17.9923 5.07435 17.709 5.41602 17.709H14.5827C14.9243 17.709 15.2077 17.9923 15.2077 18.334C15.2077 18.6757 14.9243 18.959 14.5827 18.959Z" fill="white"/>
<path d="M12.0827 12.291H7.91602C7.57435 12.291 7.29102 12.0077 7.29102 11.666C7.29102 11.3243 7.57435 11.041 7.91602 11.041H12.0827C12.4243 11.041 12.7077 11.3243 12.7077 11.666C12.7077 12.0077 12.4243 12.291 12.0827 12.291Z" fill="white"/>
</svg>
