<svg width="20" height="20" viewBox="0 0 20 20" fill="none" xmlns="http://www.w3.org/2000/svg">
<path d="M10.125 16.125C9.78333 16.125 9.5 15.8417 9.5 15.5V13.75C9.5 13.4083 9.78333 13.125 10.125 13.125C10.4667 13.125 10.75 13.4083 10.75 13.75V15.5C10.75 15.8417 10.4667 16.125 10.125 16.125Z" fill="white"/>
<path d="M14.9173 18.959H5.33398V17.5007C5.33398 16.234 6.35898 15.209 7.62565 15.209H12.6257C13.8923 15.209 14.9173 16.234 14.9173 17.5007V18.959ZM6.58398 17.709H13.6673V17.5007C13.6673 16.9257 13.2007 16.459 12.6257 16.459H7.62565C7.05065 16.459 6.58398 16.9257 6.58398 17.5007V17.709Z" fill="white"/>
<path d="M15.125 18.959H5.125C4.78333 18.959 4.5 18.6757 4.5 18.334C4.5 17.9923 4.78333 17.709 5.125 17.709H15.125C15.4667 17.709 15.75 17.9923 15.75 18.334C15.75 18.6757 15.4667 18.959 15.125 18.959Z" fill="white"/>
<path d="M15.3576 10.3668C15.1826 10.3668 15.0076 10.2918 14.8826 10.1501C14.7243 9.9668 14.6826 9.70846 14.7826 9.4918C15.0659 8.8418 15.2076 8.15013 15.2076 7.42513V4.92513C15.2076 4.63346 15.1576 4.35013 15.0576 4.05013C15.0493 4.02513 15.0409 3.9918 15.0326 3.95846C15.0076 3.83346 14.9993 3.70846 14.9993 3.5918C14.9993 3.25013 15.2826 2.9668 15.6243 2.9668H16.1243C17.6159 2.9668 18.8326 4.2168 18.8326 5.75846C18.8326 7.03346 18.3076 8.2918 17.3993 9.20013C17.3826 9.2168 17.3326 9.25846 17.3243 9.2668C16.8326 9.67513 16.2743 10.1335 15.5243 10.3418C15.4659 10.3585 15.4159 10.3668 15.3576 10.3668ZM16.3993 4.2418C16.4409 4.4668 16.4576 4.70013 16.4576 4.92513V7.42513C16.4576 7.7668 16.4326 8.0918 16.3826 8.42513C16.4326 8.38346 16.4743 8.35013 16.5243 8.30846C17.1909 7.6418 17.5826 6.70846 17.5826 5.75846C17.5826 5.00846 17.0743 4.37513 16.3993 4.2418Z" fill="white"/>
<path d="M4.64935 10.3333C4.58268 10.3333 4.52435 10.325 4.45768 10.3C3.77435 10.0833 3.13268 9.68333 2.59935 9.15C1.64102 8.09167 1.16602 6.93333 1.16602 5.70833C1.16602 4.19167 2.35768 3 3.87435 3H4.41602C4.62435 3 4.82435 3.10833 4.94102 3.28333C5.05768 3.45833 5.07435 3.68333 4.99102 3.875C4.85768 4.175 4.79102 4.51667 4.79102 4.875V7.375C4.79102 8.09167 4.93268 8.79167 5.22435 9.45833C5.32435 9.68333 5.27435 9.94167 5.11602 10.125C4.99102 10.2583 4.82435 10.3333 4.64935 10.3333ZM3.58268 4.275C2.90768 4.40833 2.41602 4.99167 2.41602 5.70833C2.41602 6.61667 2.78268 7.49167 3.50768 8.29167C3.54102 8.33333 3.58268 8.36667 3.62435 8.4C3.56602 8.05833 3.54102 7.71667 3.54102 7.375V4.875C3.54102 4.675 3.55768 4.475 3.58268 4.275Z" fill="white"/>
<path d="M9.99935 13.9577C6.44102 13.9577 3.54102 11.0577 3.54102 7.49935V4.99935C3.54102 2.81602 5.31602 1.04102 7.49935 1.04102H12.4993C14.6827 1.04102 16.4577 2.81602 16.4577 4.99935V7.49935C16.4577 11.0577 13.5577 13.9577 9.99935 13.9577ZM7.49935 2.29102C6.00768 2.29102 4.79102 3.50768 4.79102 4.99935V7.49935C4.79102 10.3743 7.12435 12.7077 9.99935 12.7077C12.8743 12.7077 15.2077 10.3743 15.2077 7.49935V4.99935C15.2077 3.50768 13.991 2.29102 12.4993 2.29102H7.49935Z" fill="white"/>
</svg>
