<svg width="20" height="20" viewBox="0 0 20 20" fill="none" xmlns="http://www.w3.org/2000/svg">
<path d="M8.32515 18.9575C8.15848 18.9575 8.02515 18.9242 7.92515 18.8825C7.59181 18.7575 7.02515 18.3492 7.02515 17.0575V11.6825H5.07515C3.95848 11.6825 3.55848 11.1575 3.41681 10.8492C3.27515 10.5325 3.15015 9.89088 3.88348 9.04921L10.1918 1.88255C11.0418 0.915878 11.7335 0.982545 12.0668 1.10755C12.4001 1.23255 12.9668 1.64088 12.9668 2.93254V8.30755H14.9168C16.0335 8.30755 16.4335 8.83255 16.5751 9.14088C16.7168 9.45755 16.8418 10.0992 16.1085 10.9409L9.80015 18.1075C9.20848 18.7825 8.69181 18.9575 8.32515 18.9575ZM11.6085 2.28255C11.5835 2.31588 11.4085 2.39921 11.1335 2.71588L4.82515 9.88254C4.59181 10.1492 4.55848 10.3159 4.55848 10.3492C4.57515 10.3575 4.72515 10.4409 5.07515 10.4409H7.65015C7.99181 10.4409 8.27515 10.7242 8.27515 11.0659V17.0659C8.27515 17.4825 8.35015 17.6659 8.38348 17.7159C8.40848 17.6825 8.58348 17.5992 8.85848 17.2825L15.1668 10.1159C15.4001 9.84921 15.4335 9.68255 15.4335 9.64921C15.4168 9.64088 15.2668 9.55755 14.9168 9.55755H12.3418C12.0001 9.55755 11.7168 9.27421 11.7168 8.93255V2.93254C11.7251 2.51588 11.6418 2.34088 11.6085 2.28255Z" fill="white"/>
</svg>
