<svg width="20" height="20" viewBox="0 0 20 20" fill="none" xmlns="http://www.w3.org/2000/svg">
<path d="M9.99935 18.0423C9.74102 18.0423 9.49102 18.009 9.28268 17.934C6.09935 16.8423 1.04102 12.9673 1.04102 7.24232C1.04102 4.32565 3.39935 1.95898 6.29935 1.95898C7.70768 1.95898 9.02435 2.50898 9.99935 3.49232C10.9743 2.50898 12.291 1.95898 13.6994 1.95898C16.5994 1.95898 18.9577 4.33398 18.9577 7.24232C18.9577 12.9757 13.8993 16.8423 10.716 17.934C10.5077 18.009 10.2577 18.0423 9.99935 18.0423ZM6.29935 3.20898C4.09102 3.20898 2.29102 5.01732 2.29102 7.24232C2.29102 12.934 7.76602 16.1007 9.69102 16.759C9.84102 16.809 10.166 16.809 10.316 16.759C12.2327 16.1007 17.716 12.9423 17.716 7.24232C17.716 5.01732 15.916 3.20898 13.7077 3.20898C12.441 3.20898 11.266 3.80065 10.5077 4.82565C10.2743 5.14232 9.74102 5.14232 9.50768 4.82565C8.73268 3.79232 7.56602 3.20898 6.29935 3.20898Z" fill="white"/>
</svg>
