<svg width="20" height="20" viewBox="0 0 20 20" fill="none" xmlns="http://www.w3.org/2000/svg">
<path d="M14.1663 17.2923H5.83294C2.29128 17.2923 1.13294 16.234 1.04961 12.934C1.04961 12.7673 1.10794 12.6007 1.22461 12.484C1.34128 12.3673 1.49961 12.2923 1.67461 12.2923C2.93294 12.2923 3.95794 11.259 3.95794 10.0007C3.95794 8.74232 2.93294 7.70898 1.67461 7.70898C1.50794 7.70898 1.34961 7.64232 1.22461 7.51732C1.09961 7.39232 1.04128 7.23398 1.04961 7.06732C1.13294 3.76732 2.29128 2.70898 5.83294 2.70898H14.1663C17.8413 2.70898 18.9579 3.82565 18.9579 7.50065V12.5007C18.9579 16.1757 17.8413 17.2923 14.1663 17.2923ZM2.32461 13.484C2.46628 15.6007 3.18294 16.0423 5.83294 16.0423H14.1663C17.1496 16.0423 17.7079 15.4757 17.7079 12.5007V7.50065C17.7079 4.52565 17.1496 3.95898 14.1663 3.95898H5.83294C3.18294 3.95898 2.46628 4.40898 2.32461 6.51732C3.96628 6.83398 5.20794 8.27565 5.20794 10.0007C5.20794 11.7257 3.96628 13.1673 2.32461 13.484Z" fill="white"/>
<path d="M7.5 6.87565C7.15833 6.87565 6.875 6.59232 6.875 6.25065V3.33398C6.875 2.99232 7.15833 2.70898 7.5 2.70898C7.84167 2.70898 8.125 2.99232 8.125 3.33398V6.25065C8.125 6.59232 7.84167 6.87565 7.5 6.87565Z" fill="white"/>
<path d="M7.5 17.2917C7.15833 17.2917 6.875 17.0083 6.875 16.6667V13.75C6.875 13.4083 7.15833 13.125 7.5 13.125C7.84167 13.125 8.125 13.4083 8.125 13.75V16.6667C8.125 17.0083 7.84167 17.2917 7.5 17.2917Z" fill="white"/>
<path d="M10.8668 13.0423C10.6668 13.0423 10.4668 12.9757 10.3001 12.859C10.0001 12.6423 9.85012 12.2757 9.91679 11.909L10.0918 10.9173L9.36679 10.209C9.10012 9.95065 9.00845 9.56732 9.11679 9.21732C9.23345 8.86732 9.53345 8.60898 9.90012 8.55898L10.9001 8.40898L11.3501 7.50065C11.5168 7.16732 11.8501 6.95898 12.2168 6.95898C12.5918 6.95898 12.9251 7.16732 13.0835 7.50065L13.5335 8.40898L14.5335 8.55898C14.9001 8.60898 15.2001 8.86732 15.3168 9.21732C15.4335 9.56732 15.3335 9.95065 15.0668 10.209L14.3418 10.9173L14.5168 11.909C14.5835 12.2757 14.4335 12.6423 14.1335 12.859C13.8335 13.0757 13.4418 13.1007 13.1168 12.934L12.2251 12.4673L11.3251 12.934C11.1835 13.009 11.0251 13.0423 10.8668 13.0423ZM10.6418 9.70898L11.0668 10.1257C11.3001 10.3507 11.4001 10.6673 11.3501 10.984L11.2501 11.5673L11.7751 11.2923C12.0585 11.1423 12.3918 11.1423 12.6751 11.2923L13.2001 11.5673L13.1001 10.984C13.0501 10.659 13.1501 10.3423 13.3835 10.1257L13.8085 9.70898L13.2251 9.62565C12.9085 9.57565 12.6335 9.37565 12.4918 9.09232L12.2335 8.55898L11.9751 9.09232C11.8335 9.37565 11.5585 9.57565 11.2418 9.62565L10.6418 9.70898Z" fill="white"/>
</svg>
