<svg width="20" height="20" viewBox="0 0 20 20" fill="none" xmlns="http://www.w3.org/2000/svg">
<path d="M16.4115 11.4577H13.0578C11.3892 11.4577 10.584 10.6827 10.584 9.08268V3.41602C10.584 1.81602 11.3975 1.04102 13.0578 1.04102H16.4115C18.08 1.04102 18.8853 1.81602 18.8853 3.41602V9.08268C18.8853 10.6827 18.0717 11.4577 16.4115 11.4577ZM13.0578 2.29102C12.0035 2.29102 11.8292 2.57435 11.8292 3.41602V9.08268C11.8292 9.92435 12.0035 10.2077 13.0578 10.2077H16.4115C17.4657 10.2077 17.6401 9.92435 17.6401 9.08268V3.41602C17.6401 2.57435 17.4657 2.29102 16.4115 2.29102H13.0578V2.29102Z" fill="white"/>
<path d="M16.4115 18.959H13.0578C11.3892 18.959 10.584 18.184 10.584 16.584V15.084C10.584 13.484 11.3975 12.709 13.0578 12.709H16.4115C18.08 12.709 18.8853 13.484 18.8853 15.084V16.584C18.8853 18.184 18.0717 18.959 16.4115 18.959ZM13.0578 13.959C12.0035 13.959 11.8292 14.2423 11.8292 15.084V16.584C11.8292 17.4257 12.0035 17.709 13.0578 17.709H16.4115C17.4657 17.709 17.6401 17.4257 17.6401 16.584V15.084C17.6401 14.2423 17.4657 13.959 16.4115 13.959H13.0578Z" fill="white"/>
<path d="M6.86461 18.9577H3.51089C1.84233 18.9577 1.03711 18.1827 1.03711 16.5827V10.916C1.03711 9.31602 1.85064 8.54102 3.51089 8.54102H6.86461C8.53317 8.54102 9.33839 9.31602 9.33839 10.916V16.5827C9.33839 18.1827 8.52487 18.9577 6.86461 18.9577ZM3.51089 9.79102C2.45663 9.79102 2.2823 10.0743 2.2823 10.916V16.5827C2.2823 17.4243 2.45663 17.7077 3.51089 17.7077H6.86461C7.91887 17.7077 8.0932 17.4243 8.0932 16.5827V10.916C8.0932 10.0743 7.91887 9.79102 6.86461 9.79102H3.51089V9.79102Z" fill="white"/>
<path d="M6.86461 7.29102H3.51089C1.84233 7.29102 1.03711 6.51602 1.03711 4.91602V3.41602C1.03711 1.81602 1.85064 1.04102 3.51089 1.04102H6.86461C8.53317 1.04102 9.33839 1.81602 9.33839 3.41602V4.91602C9.33839 6.51602 8.52487 7.29102 6.86461 7.29102ZM3.51089 2.29102C2.45663 2.29102 2.2823 2.57435 2.2823 3.41602V4.91602C2.2823 5.75768 2.45663 6.04102 3.51089 6.04102H6.86461C7.91887 6.04102 8.0932 5.75768 8.0932 4.91602V3.41602C8.0932 2.57435 7.91887 2.29102 6.86461 2.29102H3.51089V2.29102Z" fill="white"/>
</svg>
