<svg width="20" height="20" viewBox="0 0 20 20" fill="none" xmlns="http://www.w3.org/2000/svg">
<path d="M12.9161 13.1258C12.7661 13.1258 12.5995 13.1174 12.4495 13.1091C12.1411 13.0924 11.8911 12.8424 11.8661 12.5341C11.6828 10.2091 9.79114 8.32576 7.47447 8.14243C7.16614 8.11743 6.91614 7.86745 6.89947 7.55911C6.89114 7.40911 6.88281 7.24245 6.88281 7.09245C6.88281 3.75911 9.59115 1.05078 12.9245 1.05078C16.2578 1.05078 18.9661 3.75911 18.9661 7.09245C18.9661 10.4258 16.2495 13.1258 12.9161 13.1258ZM8.12447 6.96743C10.6078 7.40909 12.5995 9.39244 13.0328 11.8758C15.6245 11.8091 17.7078 9.69244 17.7078 7.08411C17.7078 4.44244 15.5578 2.29244 12.9161 2.29244C10.3161 2.29244 8.19114 4.37576 8.12447 6.96743Z" fill="white"/>
<path d="M7.08268 18.9583C3.74935 18.9583 1.04102 16.25 1.04102 12.9167C1.04102 9.58333 3.74935 6.875 7.08268 6.875C7.23268 6.875 7.39935 6.88332 7.54935 6.89166C10.491 7.12499 12.8743 9.50834 13.0993 12.4333C13.1077 12.6 13.116 12.7667 13.116 12.9167C13.1243 16.25 10.416 18.9583 7.08268 18.9583ZM7.08268 8.125C4.44102 8.125 2.29102 10.275 2.29102 12.9167C2.29102 15.5583 4.44102 17.7083 7.08268 17.7083C9.72435 17.7083 11.8743 15.5583 11.8743 12.9167C11.8743 12.7833 11.866 12.65 11.8577 12.5167C11.6744 10.2083 9.78267 8.31667 7.46601 8.13334C7.34934 8.13334 7.21602 8.125 7.08268 8.125Z" fill="white"/>
<path d="M7.08333 15.6241C6.85833 15.6241 6.64166 15.4991 6.53333 15.2991L5.88333 14.1157L4.70001 13.4657C4.50001 13.3574 4.375 13.1491 4.375 12.9157C4.375 12.6824 4.50001 12.4741 4.70001 12.3657L5.88333 11.7157L6.53333 10.5324C6.75 10.1324 7.40834 10.1324 7.63334 10.5324L8.28334 11.7157L9.46665 12.3657C9.66665 12.4741 9.79167 12.6824 9.79167 12.9157C9.79167 13.1491 9.66665 13.3574 9.46665 13.4657L8.28334 14.1157L7.63334 15.2991C7.525 15.4991 7.30833 15.6241 7.08333 15.6241ZM6.3 12.9157L6.64167 13.1074C6.75 13.1658 6.83332 13.2491 6.89166 13.3574L7.08333 13.6991L7.27501 13.3574C7.33334 13.2491 7.41667 13.1658 7.525 13.1074L7.86667 12.9157L7.525 12.7241C7.41667 12.6657 7.33334 12.5824 7.27501 12.4741L7.08333 12.1324L6.89166 12.4741C6.83332 12.5824 6.75 12.6657 6.64167 12.7241L6.3 12.9157Z" fill="white"/>
</svg>
