<svg width="22" height="22" viewBox="0 0 22 22" fill="none" xmlns="http://www.w3.org/2000/svg">
<path d="M10.9997 20.8548C5.56384 20.8548 1.14551 16.4365 1.14551 11.0007C1.14551 5.56482 5.56384 1.14648 10.9997 1.14648C16.4355 1.14648 20.8538 5.56482 20.8538 11.0007C20.8538 16.4365 16.4355 20.8548 10.9997 20.8548ZM10.9997 2.52148C6.32467 2.52148 2.52051 6.32565 2.52051 11.0007C2.52051 15.6757 6.32467 19.4798 10.9997 19.4798C15.6747 19.4798 19.4788 15.6757 19.4788 11.0007C19.4788 6.32565 15.6747 2.52148 10.9997 2.52148Z" fill="white"/>
<path d="M9.69832 14.2811C9.51499 14.2811 9.34082 14.2078 9.21249 14.0795L6.61832 11.4853C6.35249 11.2195 6.35249 10.7795 6.61832 10.5136C6.88415 10.2478 7.32415 10.2478 7.58999 10.5136L9.69832 12.622L14.41 7.91031C14.6758 7.64448 15.1158 7.64448 15.3817 7.91031C15.6475 8.17615 15.6475 8.61615 15.3817 8.88198L10.1842 14.0795C10.0558 14.2078 9.88165 14.2811 9.69832 14.2811Z" fill="white"/>
</svg>
