<svg width="14" height="14" viewBox="0 0 14 14" fill="none" xmlns="http://www.w3.org/2000/svg">
<path d="M0 7C0 3.13401 3.13401 0 7 0C10.866 0 14 3.13401 14 7C14 10.866 10.866 14 7 14C3.13401 14 0 10.866 0 7Z" fill="#171A1E"/>
<path d="M0.5 7C0.5 3.41015 3.41015 0.5 7 0.5C10.5899 0.5 13.5 3.41015 13.5 7C13.5 10.5899 10.5899 13.5 7 13.5C3.41015 13.5 0.5 10.5899 0.5 7Z" stroke="white" stroke-opacity="0.12"/>
<path fill-rule="evenodd" clip-rule="evenodd" d="M7.56578 6.99927L9.6829 4.88211C9.83929 4.72571 9.83929 4.47291 9.6829 4.31652C9.5265 4.16012 9.27371 4.16012 9.11732 4.31652L7.0002 6.43368L4.88307 4.31652C4.72668 4.16012 4.47389 4.16012 4.31749 4.31652C4.1611 4.47291 4.1611 4.72571 4.31749 4.88211L6.43462 6.99927L4.31749 9.11643C4.1611 9.27283 4.1611 9.52562 4.31749 9.68202C4.39549 9.76002 4.49788 9.79922 4.60028 9.79922C4.70268 9.79922 4.80507 9.76002 4.88307 9.68202L7.0002 7.56486L9.11732 9.68202C9.19532 9.76002 9.29771 9.79922 9.40011 9.79922C9.50251 9.79922 9.6049 9.76002 9.6829 9.68202C9.83929 9.52562 9.83929 9.27283 9.6829 9.11643L7.56578 6.99927Z" fill="white" fill-opacity="0.12"/>
</svg>
