<svg width="929" height="56" viewBox="0 0 929 56" fill="none" xmlns="http://www.w3.org/2000/svg">
<g filter="url(#filter0_d_1107_12887)">
<path d="M4 17C4 7.61116 11.6112 0 21 0H908C917.389 0 925 7.61116 925 17V31C925 40.3888 917.389 48 908 48H21C11.6112 48 4 40.3888 4 31V17Z" fill="#171A1E"/>
<path d="M29.0608 27.9145C31.7414 27.9145 33.9145 25.7414 33.9145 23.0608C33.9145 20.3801 31.7414 18.207 29.0608 18.207C26.3801 18.207 24.207 20.3801 24.207 23.0608C24.207 25.7414 26.3801 27.9145 29.0608 27.9145Z" stroke="white" stroke-opacity="0.6" stroke-width="1.3" stroke-miterlimit="10" stroke-linecap="round" stroke-linejoin="round"/>
<path d="M32.4951 26.4961L35.3336 29.3346" stroke="white" stroke-opacity="0.6" stroke-width="1.3" stroke-miterlimit="10" stroke-linecap="round" stroke-linejoin="round"/>
<path d="M54.7568 19.0469V29H53.4443V20.127H48.5361V29H47.2168V19.0469H54.7568ZM56.623 25.3838V25.2266C56.623 24.6934 56.7005 24.1989 56.8555 23.7432C57.0104 23.2829 57.2337 22.8841 57.5254 22.5469C57.8171 22.2051 58.1702 21.9408 58.585 21.7539C58.9997 21.5625 59.4645 21.4668 59.9795 21.4668C60.499 21.4668 60.9661 21.5625 61.3809 21.7539C61.8001 21.9408 62.1556 22.2051 62.4473 22.5469C62.7435 22.8841 62.9691 23.2829 63.124 23.7432C63.279 24.1989 63.3564 24.6934 63.3564 25.2266V25.3838C63.3564 25.917 63.279 26.4115 63.124 26.8672C62.9691 27.3229 62.7435 27.7217 62.4473 28.0635C62.1556 28.4007 61.8024 28.665 61.3877 28.8564C60.9775 29.0433 60.5127 29.1367 59.9932 29.1367C59.4736 29.1367 59.0065 29.0433 58.5918 28.8564C58.1771 28.665 57.8216 28.4007 57.5254 28.0635C57.2337 27.7217 57.0104 27.3229 56.8555 26.8672C56.7005 26.4115 56.623 25.917 56.623 25.3838ZM57.8877 25.2266V25.3838C57.8877 25.7529 57.931 26.1016 58.0176 26.4297C58.1042 26.7533 58.234 27.0404 58.4072 27.291C58.585 27.5417 58.806 27.7399 59.0703 27.8857C59.3346 28.027 59.6423 28.0977 59.9932 28.0977C60.3395 28.0977 60.6426 28.027 60.9023 27.8857C61.1667 27.7399 61.3854 27.5417 61.5586 27.291C61.7318 27.0404 61.8617 26.7533 61.9482 26.4297C62.0394 26.1016 62.085 25.7529 62.085 25.3838V25.2266C62.085 24.862 62.0394 24.5179 61.9482 24.1943C61.8617 23.8662 61.7295 23.5768 61.5518 23.3262C61.3786 23.071 61.1598 22.8704 60.8955 22.7246C60.6357 22.5788 60.3304 22.5059 59.9795 22.5059C59.6331 22.5059 59.3278 22.5788 59.0635 22.7246C58.8037 22.8704 58.585 23.071 58.4072 23.3262C58.234 23.5768 58.1042 23.8662 58.0176 24.1943C57.931 24.5179 57.8877 24.862 57.8877 25.2266ZM66.3096 26.9971L69.7207 21.6035H70.9922V29H69.7207V23.6064L66.3096 29H65.0518V21.6035H66.3096V26.9971ZM75.9824 28.0977C76.2832 28.0977 76.5612 28.0361 76.8164 27.9131C77.0716 27.79 77.2812 27.6214 77.4453 27.4072C77.6094 27.1885 77.7028 26.9401 77.7256 26.6621H78.9287C78.9059 27.0996 78.7578 27.5075 78.4844 27.8857C78.2155 28.2594 77.8623 28.5625 77.4248 28.7949C76.9873 29.0228 76.5065 29.1367 75.9824 29.1367C75.4264 29.1367 74.9411 29.0387 74.5264 28.8428C74.1162 28.6468 73.7744 28.3779 73.501 28.0361C73.2321 27.6943 73.0293 27.3024 72.8926 26.8604C72.7604 26.4137 72.6943 25.9421 72.6943 25.4453V25.1582C72.6943 24.6615 72.7604 24.1921 72.8926 23.75C73.0293 23.3034 73.2321 22.9092 73.501 22.5674C73.7744 22.2256 74.1162 21.9567 74.5264 21.7607C74.9411 21.5648 75.4264 21.4668 75.9824 21.4668C76.5612 21.4668 77.0671 21.5853 77.5 21.8223C77.9329 22.0547 78.2725 22.3737 78.5186 22.7793C78.7692 23.1803 78.9059 23.6361 78.9287 24.1465H77.7256C77.7028 23.8411 77.6162 23.5654 77.4658 23.3193C77.32 23.0732 77.1195 22.8773 76.8643 22.7314C76.6136 22.5811 76.3197 22.5059 75.9824 22.5059C75.5951 22.5059 75.2692 22.5833 75.0049 22.7383C74.7451 22.8887 74.5378 23.0938 74.3828 23.3535C74.2324 23.6087 74.123 23.8936 74.0547 24.208C73.9909 24.5179 73.959 24.8346 73.959 25.1582V25.4453C73.959 25.7689 73.9909 26.0879 74.0547 26.4023C74.1185 26.7168 74.2256 27.0016 74.376 27.2568C74.5309 27.512 74.7383 27.7171 74.998 27.8721C75.2624 28.0225 75.5905 28.0977 75.9824 28.0977ZM81.7246 21.6035V29H80.46V21.6035H81.7246ZM86.5781 21.6035L83.0713 25.8418H81.3008L81.1094 24.7344H82.5586L85.04 21.6035H86.5781ZM85.2178 29L82.4971 25.6504L83.3105 24.7344L86.8242 29H85.2178Z" fill="white" fill-opacity="0.6"/>
</g>
<defs>
<filter id="filter0_d_1107_12887" x="0" y="0" width="929" height="56" filterUnits="userSpaceOnUse" color-interpolation-filters="sRGB">
<feFlood flood-opacity="0" result="BackgroundImageFix"/>
<feColorMatrix in="SourceAlpha" type="matrix" values="0 0 0 0 0 0 0 0 0 0 0 0 0 0 0 0 0 0 127 0" result="hardAlpha"/>
<feOffset dy="4"/>
<feGaussianBlur stdDeviation="2"/>
<feComposite in2="hardAlpha" operator="out"/>
<feColorMatrix type="matrix" values="0 0 0 0 0 0 0 0 0 0 0 0 0 0 0 0 0 0 0.25 0"/>
<feBlend mode="normal" in2="BackgroundImageFix" result="effect1_dropShadow_1107_12887"/>
<feBlend mode="normal" in="SourceGraphic" in2="effect1_dropShadow_1107_12887" result="shape"/>
</filter>
</defs>
</svg>
